# xmcd
#
# Track frame offsets: 
#        150
#        23500
#        41015
#        65861
#        85307
#        101332
#        118781
#        140683
#        163584
#        187321
#        213933
#        231820
#        252440
#
# Disc length: 3536 seconds
#
# Revision: 0
# Processed by: cddbd v1.5.2PL0 Copyright (c) Steve Scherf et al.
# Submitted via: ExactAudioCopyFreeDBPlugin 1.0
#
DISCID=bb0dce0d
DTITLE=Dave Specter - Message In Blue
DYEAR=2014
DGENRE=Blues
TTITLE0=New West Side Stroll
TTITLE1=Got To Find A Way
TTITLE2=This Time I'm Gone For Good
TTITLE3=Message In Blue
TTITLE4=Chicago Style
TTITLE5=I Found A Love
TTITLE6=Funkified Outta Space
TTITLE7=Same Old Blues
TTITLE8=The Stinger
TTITLE9=Jefferson Stomp
TTITLE10=Watchdog
TTITLE11=The Spectifyin' Samba
TTITLE12=Opus De Swamp
EXTD=
EXTT0=
EXTT1=
EXTT2=
EXTT3=
EXTT4=
EXTT5=
EXTT6=
EXTT7=
EXTT8=
EXTT9=
EXTT10=
EXTT11=
EXTT12=
PLAYORDER=
